<?xml version="1.0" encoding="UTF-8"?>
<svg width="20px" height="17px" viewBox="0 0 20 17" version="1.1" xmlns="http://www.w3.org/2000/svg" xmlns:xlink="http://www.w3.org/1999/xlink">
    <!-- Generator: Sketch 54 (76480) - https://sketchapp.com -->
    <title>Group-20</title>
    <desc>Created with Sketch.</desc>
    <g id="Page-1" stroke="none" stroke-width="1" fill="none" fill-rule="evenodd">
        <g id="Desktop-HD-Copy-3" transform="translate(-779.000000, -2909.000000)" fill="#B64597" fill-rule="nonzero">
            <g id="Group-20" transform="translate(779.000000, 2909.000000)">
                <path d="M19.6765116,16.6340405 C18.6981395,15.4658649 18.9353488,13.8772838 19.167907,13.0192432 C19.3869767,12.4837432 19.5102326,11.9137838 19.5102326,11.3178649 C19.5102326,10.253527 19.1309302,9.26431081 18.4837209,8.43498649 C17.8534884,12.3052432 13.9693023,15.3020676 9.24674419,15.3758108 C10.3316279,16.1297838 11.7230233,16.5841892 13.2406977,16.5841892 C14.3502326,16.5841892 15.3888372,16.3399865 16.2916279,15.9156757 C17.6774419,16.8341351 19.4030233,16.9602568 19.4030233,16.9602568 C20.1490698,16.9597973 19.6765116,16.6340405 19.6765116,16.6340405 Z" id="Shape"></path>
                <path d="M17.7734884,7.33366216 C17.7734884,3.33613514 13.8690698,0.0829324324 9.07093023,0.0829324324 C4.27209302,0.0829324324 0.368139535,3.33613514 0.368139535,7.33366216 C0.368139535,8.11474324 0.524651163,8.89674324 0.833953488,9.65531081 C1.19302326,10.9620135 1.54837209,13.3080135 0.182790698,15.1224189 C0.646511628,15.0732568 2.73023256,14.7964324 4.41418605,13.6817838 L4.6055814,13.5554324 L4.81348837,13.6526081 C6.11069767,14.2616216 7.5827907,14.5846216 9.07093023,14.5846216 C13.8690698,14.5846216 17.7734884,11.3311892 17.7734884,7.33366216 Z" id="Shape"></path>
            </g>
        </g>
    </g>
</svg>