<?xml version="1.0" encoding="UTF-8"?>
<svg width="29px" height="28px" viewBox="0 0 29 28" version="1.1" xmlns="http://www.w3.org/2000/svg" xmlns:xlink="http://www.w3.org/1999/xlink">
    <!-- Generator: Sketch 54 (76480) - https://sketchapp.com -->
    <title>dashboard</title>
    <desc>Created with Sketch.</desc>
    <g id="Page-1" stroke="none" stroke-width="1" fill="none" fill-rule="evenodd">
        <g id="Desktop-HD-Copy-3" transform="translate(-127.000000, -2007.000000)" fill="#B64597" fill-rule="nonzero">
            <g id="Group-6" transform="translate(114.000000, 1662.000000)">
                <g id="App-Showcase">
                    <g id="Group-15" transform="translate(0.000000, 332.000000)">
                        <g id="Group-14">
                            <g id="dashboard" transform="translate(13.000000, 13.000000)">
                                <g id="001-map">
                                    <path d="M28.7400741,0.077 C28.578963,-0.021 28.3781111,-0.0253076923 28.2121667,0.0624615385 L19.3333333,4.77561538 L10.455037,0.0624615385 C10.4480556,0.0586923077 10.44,0.0576153846 10.4330185,0.0543846154 C10.4072407,0.042 10.3809259,0.0328461538 10.3540741,0.0247692308 C10.339037,0.0204615385 10.324537,0.0156153846 10.3095,0.0123846154 C10.279963,0.00646153846 10.2498889,0.00430769231 10.2192778,0.00323076923 C10.2058519,0.00269230769 10.1924259,0.00107692308 10.178463,0.00161538462 C10.149463,0.00323076923 10.121,0.00861538462 10.092537,0.0150769231 C10.0764259,0.0183076923 10.0603148,0.0204615385 10.0447407,0.0253076923 C10.0409815,0.0263846154 10.0372222,0.0263846154 10.034,0.0274615385 L0.367333333,3.25823077 C0.147685185,3.33146154 0,3.53715385 0,3.76923077 L0,26.9230769 C0,27.0959231 0.0827037037,27.2585385 0.223407407,27.3603077 C0.315777778,27.4265385 0.42587037,27.4615385 0.537037037,27.4615385 C0.593962963,27.4615385 0.651425926,27.4523846 0.706740741,27.4335385 L10.1832963,24.2663077 L19.1287222,27.9596154 C19.1362407,27.9628462 19.1448333,27.9617692 19.1523519,27.9644615 C19.2114259,27.9854615 19.2715741,28 19.3333333,28 C19.3816667,28 19.429463,27.9919231 19.4761852,27.979 C19.4912222,27.9746923 19.5051852,27.9676923 19.5202222,27.9623077 C19.5417037,27.9542308 19.5642593,27.9483077 19.5846667,27.9375385 L28.7142963,23.0913846 C28.8899074,22.9982308 29,22.8146154 29,22.6153846 L29,0.538461538 C29,0.349461538 28.9011852,0.174461538 28.7400741,0.077 Z M1.07407407,4.15746154 L9.66666667,1.28584615 L9.66666667,15.82 C9.43574074,15.862 9.20803704,15.9093846 8.98785185,15.9675385 C8.70107407,16.044 8.5302963,16.3385385 8.60655556,16.6260769 C8.67046296,16.8673077 8.88742593,17.0266923 9.12533333,17.0266923 C9.17044444,17.0266923 9.21716667,17.0207692 9.26335185,17.0089231 C9.39224074,16.9744615 9.53294444,16.9572308 9.66666667,16.9292308 L9.66666667,23.3046154 L1.07407407,26.1756923 L1.07407407,4.15746154 Z M10.7407407,16.7784615 C10.9131296,16.765 11.0801481,16.7429231 11.2568333,16.7391538 C11.5532778,16.7326923 11.7885,16.4866154 11.7825926,16.1893846 C11.7761481,15.8959231 11.5371667,15.6622308 11.2455556,15.6622308 C11.2417963,15.6622308 11.2375,15.6622308 11.2337407,15.6622308 C11.0672593,15.666 10.903463,15.6751538 10.7407407,15.6864615 L10.7407407,1.43284615 L18.7962963,5.70876923 L18.7962963,17.1209231 C18.4128519,17.1042308 18.022963,17.059 17.6142778,16.9798462 C17.3221296,16.9222308 17.0412593,17.1139231 16.9848704,17.4057692 C16.9284815,17.6976154 17.1191296,17.9803077 17.4102037,18.0368462 C17.8860185,18.1294615 18.3478704,18.1746923 18.7968333,18.1924615 L18.7968333,26.6576154 L10.7407407,23.3315385 L10.7407407,16.7784615 Z M27.9259259,22.2906923 L19.8703704,26.5666154 L19.8703704,18.1343077 C20.0701481,18.0433077 20.2033333,17.8386923 20.1856111,17.6066154 C20.170037,17.4052308 20.0411481,17.2436923 19.8703704,17.1645385 L19.8703704,5.70876923 L27.9259259,1.43284615 L27.9259259,22.2906923 Z" id="Shape"></path>
                                    <path d="M5.90740741,4.30769231 C4.4267963,4.30769231 3.22222222,5.51546154 3.22222222,7 C3.22222222,8.30038462 4.14646296,9.38753846 5.37037037,9.63792308 L5.37037037,10.7692308 C5.37037037,11.067 5.61096296,11.3076923 5.90740741,11.3076923 C6.20385185,11.3076923 6.44444444,11.067 6.44444444,10.7692308 L6.44444444,9.63792308 C7.66835185,9.38753846 8.59259259,8.30038462 8.59259259,7 C8.59259259,5.51546154 7.38801852,4.30769231 5.90740741,4.30769231 Z M5.90740741,8.61538462 C5.01914815,8.61538462 4.2962963,7.89061538 4.2962963,7 C4.2962963,6.10938462 5.01914815,5.38461538 5.90740741,5.38461538 C6.79566667,5.38461538 7.51851852,6.10938462 7.51851852,7 C7.51851852,7.89061538 6.79566667,8.61538462 5.90740741,8.61538462 Z" id="Shape"></path>
                                    <path d="M24.2042593,14.3623846 C24.2687037,14.3876923 24.3347593,14.399 24.3997407,14.399 C24.6145556,14.399 24.8170185,14.2692308 24.9002593,14.0565385 C25.1526667,13.4109231 25.3551296,12.6818462 25.5033519,11.8897692 C25.5581296,11.5979231 25.3658704,11.3168462 25.0742593,11.2613846 C24.781037,11.2129231 24.5023148,11.3997692 24.447537,11.6921538 C24.3122037,12.418 24.128,13.0813846 23.9002963,13.6645385 C23.7923519,13.9407692 23.9282222,14.2536154 24.2042593,14.3623846 Z" id="Path"></path>
                                    <path d="M6.87675926,16.8764615 C6.22855556,17.2840769 5.64425926,17.7945385 5.13944444,18.3949231 C4.94825926,18.6221538 4.97725926,18.9619231 5.20388889,19.1536154 C5.30485185,19.2386923 5.42783333,19.2801538 5.54974074,19.2801538 C5.7027963,19.2801538 5.85424074,19.215 5.96057407,19.089 C6.39342593,18.5742308 6.89340741,18.1364615 7.44709259,17.7891538 C7.69842593,17.6308462 7.77414815,17.2986154 7.6167963,17.0466154 C7.45944444,16.7946154 7.12755556,16.7181538 6.87675926,16.8764615 Z" id="Path"></path>
                                    <path d="M4.63301852,20.0716923 C4.36342593,19.9478462 4.04442593,20.0646923 3.92037037,20.335 C3.36937037,21.5336154 3.23296296,22.5012308 3.22705556,22.5421538 C3.18677778,22.8366923 3.39192593,23.1075385 3.68568519,23.1479231 C3.71038889,23.1516923 3.73562963,23.1533077 3.7597963,23.1533077 C4.02348148,23.1533077 4.25333333,22.9583846 4.29146296,22.6896923 C4.29253704,22.6810769 4.41551852,21.8297692 4.89562963,20.7867692 C5.01968519,20.5159231 4.90207407,20.1966154 4.63301852,20.0716923 Z" id="Path"></path>
                                    <path d="M21.7086481,17.6233077 C21.7908148,17.6233077 21.8745926,17.6044615 21.952463,17.5646154 C22.6463148,17.2086923 23.258,16.7036154 23.7697963,16.0644615 C23.9556111,15.8323846 23.9185556,15.4931538 23.6870926,15.3073846 C23.4561667,15.1226923 23.1178333,15.1587692 22.9320185,15.3903077 C22.5152778,15.911 22.0212037,16.3196923 21.4632222,16.6056154 C21.199,16.7413077 21.0942778,17.0654615 21.2296111,17.3303846 C21.3252037,17.5161538 21.5137037,17.6233077 21.7086481,17.6233077 Z" id="Path"></path>
                                    <path d="M15.6653704,16.3864615 C15.428537,16.2868462 15.2899815,16.2179231 15.2808519,16.2130769 C15.2459444,16.1953077 15.2088889,16.1807692 15.1707593,16.1710769 C14.5891481,16.0213846 14.0161296,15.9029231 13.4667407,15.8189231 C13.1740556,15.7726154 12.8996296,15.9756154 12.8545185,16.2696154 C12.8099444,16.5636154 13.0113333,16.8387692 13.3045556,16.8834615 C13.8018519,16.9599231 14.3211667,17.0665385 14.8496111,17.2011538 C14.9215741,17.2356154 15.0590556,17.3007692 15.2513148,17.381 C15.3189815,17.4095385 15.3893333,17.4224615 15.4580741,17.4224615 C15.6680556,17.4224615 15.8678333,17.2986154 15.9537593,17.0918462 C16.0681481,16.8161538 15.9392593,16.5006154 15.6653704,16.3864615 Z" id="Path"></path>
                                    <path d="M25.1993889,10.1936154 C25.2112037,10.1941538 25.2224815,10.1946923 25.2342963,10.1946923 C25.5151667,10.1946923 25.751463,9.97607692 25.7697222,9.69015385 C25.8030185,9.17269231 25.8196667,8.62507692 25.8196667,8.064 C25.8196667,7.87715385 25.8180556,7.68761538 25.8142963,7.49430769 C25.8089259,7.19653846 25.5511481,6.97038462 25.2675926,6.96553846 C24.9711481,6.97092308 24.7348519,7.21646154 24.7402222,7.51369231 C24.7434444,7.70053846 24.7455926,7.88415385 24.7455926,8.064 C24.7455926,8.60246154 24.7294815,9.12638462 24.6977963,9.62176923 C24.679,9.91846154 24.9034815,10.1742308 25.1993889,10.1936154 Z" id="Path"></path>
                                    <path d="M4.45364815,14.9191538 C4.55837037,15.0241538 4.69585185,15.0769231 4.83333333,15.0769231 C4.97081481,15.0769231 5.1082963,15.0241538 5.21301852,14.9191538 L5.90740741,14.2229231 L6.6017963,14.9191538 C6.70651852,15.0241538 6.844,15.0769231 6.98148148,15.0769231 C7.11896296,15.0769231 7.25644444,15.0241538 7.36116667,14.9191538 C7.57114815,14.7086154 7.57114815,14.3683077 7.36116667,14.1577692 L6.66677778,13.4615385 L7.36116667,12.7653077 C7.57114815,12.5547692 7.57114815,12.2144615 7.36116667,12.0039231 C7.15118519,11.7933846 6.81177778,11.7933846 6.6017963,12.0039231 L5.90740741,12.7001538 L5.21301852,12.0039231 C5.00303704,11.7933846 4.66362963,11.7933846 4.45364815,12.0039231 C4.24366667,12.2144615 4.24366667,12.5547692 4.45364815,12.7653077 L5.14803704,13.4615385 L4.45364815,14.1577692 C4.24366667,14.3677692 4.24366667,14.7086154 4.45364815,14.9191538 Z" id="Path"></path>
                                </g>
                            </g>
                        </g>
                    </g>
                </g>
            </g>
        </g>
    </g>
</svg>