<?xml version="1.0" encoding="UTF-8"?>
<svg width="20px" height="20px" viewBox="0 0 20 20" version="1.1" xmlns="http://www.w3.org/2000/svg" xmlns:xlink="http://www.w3.org/1999/xlink">
    <!-- Generator: Sketch 54 (76480) - https://sketchapp.com -->
    <title>Group 23</title>
    <desc>Created with Sketch.</desc>
    <g id="Page-1" stroke="none" stroke-width="1" fill="none" fill-rule="evenodd">
        <g id="Desktop-HD-Copy-3" transform="translate(-779.000000, -2833.000000)" fill-rule="nonzero">
            <g id="Group-22" transform="translate(779.000000, 2833.000000)">
                <g id="Group-23" transform="translate(0.000000, 0.000000)">
                    <circle id="Oval" fill="#B64597" cx="10" cy="10" r="10"></circle>
                    <g id="flaticon1575898491-svg" transform="translate(6.000000, 5.000000)" fill="#FFFFFF">
                        <path d="M4,0 C1.8011828,0 0.0123225806,1.78711328 0.0123225806,3.98376172 C0.0123225806,6.70987109 3.58090323,10.711959 3.73283871,10.880998 C3.87554839,11.0397891 4.12470968,11.0395098 4.26716129,10.880998 C4.41909677,10.711959 7.98767742,6.70987109 7.98767742,3.98376172 C7.98763441,1.78711328 6.1987957,0 4,0 Z M4,5.98810352 C2.89372043,5.98810352 1.99372043,5.08896094 1.99372043,3.98376172 C1.99372043,2.8785625 2.89374194,1.97944141 4,1.97944141 C5.10625806,1.97944141 6.00625806,2.87858398 6.00625806,3.9837832 C6.00625806,5.08898242 5.10625806,5.98810352 4,5.98810352 Z" id="Shape"></path>
                    </g>
                </g>
            </g>
        </g>
    </g>
</svg>