<?xml version="1.0" encoding="UTF-8"?>
<svg width="19px" height="32px" viewBox="0 0 19 32" version="1.1" xmlns="http://www.w3.org/2000/svg" xmlns:xlink="http://www.w3.org/1999/xlink">
    <!-- Generator: Sketch 54 (76480) - https://sketchapp.com -->
    <title>Path</title>
    <desc>Created with Sketch.</desc>
    <g id="Page-1" stroke="none" stroke-width="1" fill="none" fill-rule="evenodd" fill-opacity="0.5">
        <g id="Desktop-HD-Copy-3" transform="translate(-782.000000, -2754.000000)" fill="#B64697" fill-rule="nonzero">
            <g id="002-flash" transform="translate(782.000000, 2754.000000)">
                <path d="M18.3283729,10.9749589 C18.2401498,10.7872086 18.0501452,10.6667083 17.8408439,10.6667083 L11.4640578,10.6667083 L17.7574134,0.818689099 C17.8623479,0.654438778 17.8687802,0.446438372 17.7741248,0.27631304 C17.6794063,0.105625206 17.4985457,0 17.3026764,0 L8.69269096,0 C8.48874984,0 8.30252902,0.114125223 8.21108974,0.294938076 L0.139208634,16.2949693 C0.0557781753,16.4597821 0.0649221031,16.6560325 0.162856723,16.8133453 C0.261358897,16.9706581 0.43408454,17.0666583 0.620809853,17.0666583 L6.1543366,17.0666583 L0.124641411,31.2597486 C0.02185105,31.5024365 0.11335339,31.7839996 0.339870553,31.9216248 C0.427021645,31.9744375 0.523884218,32 0.620242298,32 C0.774680086,32 0.92697378,31.9343749 1.03247579,31.8106871 L18.2525098,11.54396 C18.3875247,11.3850847 18.416596,11.1632093 18.3283729,10.9749589 Z" id="Path"></path>
            </g>
        </g>
    </g>
</svg>